<?xml version="1.0" encoding="UTF-8" ?> 
<svg xmlns="http://www.w3.org/2000/svg" version="1.1">
<!-- background -->
<rect x="0" y="0" width="100" height="100" fill="none" />
<!-- hull -->
<rect x="15" y="0" width="70" height="100" fill="cornflowerblue" />
<rect x="0" y="15" width="100" height="70" fill="cornflowerblue" />
<polygon points="85,0 100,15 85,30 70,15" fill="cornflowerblue" />
<rect x="0" y="0" width="30" height="30" rx="15" ry="15" fill="cornflowerblue" />
<rect x="0" y="70" width="30" height="30" rx="15" ry="15" fill="cornflowerblue" />
<rect x="70" y="70" width="30" height="30" rx="15" ry="15" fill="cornflowerblue" />
<!-- white stuff -->
<rect x="25" y="0" width="55" height="15" fill="white" />
<rect x="25" y="5" width="55" height="20" rx="10" ry="10" fill="white" />
<rect x="15" y="75" width="70" height="25" fill="white" />
<rect x="15" y="60" width="70" height="20" rx="5" ry="5" fill="white" />
<!-- grey stuff -->
<rect x="30" y="0" width="20" height="15" fill="grey" />
<rect x="30" y="10" width="20" height="10" rx="5" ry="5" fill="grey" />
<rect x="30" y="0" width="20" height="5" fill="lightgrey" />
<rect x="15" y="95" width="70" height="5" fill="lightgrey" />
<rect x="25" y="80" width="50" height="5" fill="lightgrey" />
<rect x="25" y="70" width="50" height="5" fill="lightgrey" />
</svg>
